<mxfile host="app.diagrams.net" modified="2023-06-25T16:19:48.503Z" agent="Mozilla/5.0 (Windows NT 10.0; Win64; x64; rv:109.0) Gecko/20100101 Firefox/114.0" version="21.5.0" etag="4vhRTG3ZGC_EDq7yK8XF" type="github">
  <diagram name="Page-1" id="t8bx6x7I-YUx6AVbqyT5">
    <mxGraphModel>
      <root>
        <mxCell id="0" />
        <mxCell id="1" parent="0" />
      </root>
    </mxGraphModel>
  </diagram>
</mxfile>
